<?xml version="1.0" standalone="no"?>
<!DOCTYPE svg PUBLIC "-//W3C//DTD SVG 20010904//EN"
 "http://www.w3.org/TR/2001/REC-SVG-20010904/DTD/svg10.dtd">
<svg version="1.0" xmlns="http://www.w3.org/2000/svg"
 width="128.000000pt" height="128.000000pt" viewBox="0 0 128.000000 128.000000"
 preserveAspectRatio="xMidYMid meet">
<metadata>
Created by potrace 1.14, written by Peter Selinger 2001-2017
</metadata>
<g transform="translate(0.000000,128.000000) scale(0.100000,-0.100000)"
fill="#000000" stroke="none">
<path d="M137 1269 c-45 -12 -93 -55 -116 -102 -20 -42 -21 -56 -21 -528 l0
-485 25 -50 c14 -28 40 -59 62 -74 l37 -25 517 0 517 0 39 31 c21 16 48 49 60
73 22 43 22 48 22 529 l0 487 -26 47 c-26 47 -53 72 -103 94 -30 13 -968 16
-1013 3z"/>
</g>
</svg>
